<svg width="30" height="30" viewBox="0 0 30 30" fill="none" xmlns="http://www.w3.org/2000/svg">
<path d="M25.3963 5.19447C23.4842 4.31711 21.4337 3.67072 19.2899 3.3005C19.2508 3.29336 19.2118 3.31121 19.1917 3.34693C18.928 3.81595 18.6359 4.42782 18.4314 4.90875C16.1255 4.56354 13.8315 4.56354 11.5729 4.90875C11.3683 4.41713 11.0656 3.81595 10.8007 3.34693C10.7806 3.31241 10.7416 3.29455 10.7026 3.3005C8.55989 3.66954 6.50945 4.31593 4.59617 5.19447C4.57961 5.20161 4.56541 5.21352 4.55599 5.22899C0.66674 11.0394 -0.398688 16.7071 0.123975 22.3044C0.12634 22.3318 0.141712 22.358 0.162998 22.3747C2.72901 24.2591 5.21463 25.4031 7.6541 26.1614C7.69314 26.1733 7.73451 26.159 7.75935 26.1269C8.33641 25.3388 8.8508 24.5079 9.29185 23.6341C9.31787 23.5829 9.29303 23.5222 9.23983 23.502C8.42391 23.1925 7.647 22.8151 6.89966 22.3866C6.84055 22.3521 6.83582 22.2675 6.8902 22.227C7.04747 22.1092 7.20477 21.9866 7.35494 21.8628C7.38211 21.8402 7.41997 21.8354 7.45192 21.8497C12.3616 24.0913 17.6769 24.0913 22.5287 21.8497C22.5606 21.8342 22.5985 21.839 22.6268 21.8616C22.7771 21.9854 22.9343 22.1092 23.0928 22.227C23.1472 22.2675 23.1436 22.3521 23.0845 22.3866C22.3372 22.8234 21.5602 23.1925 20.7431 23.5008C20.6899 23.521 20.6663 23.5829 20.6923 23.6341C21.1428 24.5067 21.6572 25.3376 22.2236 26.1257C22.2473 26.159 22.2898 26.1733 22.3289 26.1614C24.7802 25.4031 27.2658 24.2591 29.8318 22.3747C29.8543 22.358 29.8685 22.333 29.8708 22.3056C30.4964 15.8345 28.8231 10.2133 25.4353 5.23017C25.427 5.21352 25.4128 5.20161 25.3963 5.19447ZM10.025 18.8962C8.54687 18.8962 7.32892 17.5392 7.32892 15.8726C7.32892 14.206 8.52325 12.8489 10.025 12.8489C11.5386 12.8489 12.7448 14.2179 12.7211 15.8726C12.7211 17.5392 11.5268 18.8962 10.025 18.8962ZM19.9934 18.8962C18.5153 18.8962 17.2974 17.5392 17.2974 15.8726C17.2974 14.206 18.4917 12.8489 19.9934 12.8489C21.507 12.8489 22.7132 14.2179 22.6896 15.8726C22.6896 17.5392 21.507 18.8962 19.9934 18.8962Z" fill="white"/>
</svg>
