<svg width="50" height="50" viewBox="0 0 50 50" fill="none" xmlns="http://www.w3.org/2000/svg">
<path d="M15.2687 10.8727C15.3972 10.1099 16.1197 9.59577 16.8825 9.72427L25.1691 11.1203C25.9318 11.2488 26.446 11.9713 26.3175 12.7341L21.3655 42.1284C21.237 42.8912 20.5145 43.4054 19.7517 43.2769L11.4651 41.8808C10.7024 41.7523 10.1882 41.0298 10.3167 40.2671L15.2687 10.8727Z" fill="#3D4351"/>
<path d="M28.7115 1.40056C28.7115 0.627053 29.3385 0 30.112 0H38.5154C39.2889 0 39.916 0.627052 39.916 1.40056V42.0168C39.916 42.7903 39.2889 43.4174 38.5154 43.4174H30.112C29.3385 43.4174 28.7115 42.7903 28.7115 42.0168V1.40056Z" fill="#3D4351"/>
<path d="M0 47.0588C0 46.2853 0.627052 45.6583 1.40056 45.6583H48.5994C49.373 45.6583 50 46.2853 50 47.0588V48.4594C50 49.2329 49.373 49.8599 48.5994 49.8599H1.40056C0.627052 49.8599 0 49.2329 0 48.4594V47.0588Z" fill="#3D4351"/>
</svg>
