<svg width="1046" height="356" viewBox="0 0 1046 356" fill="none" xmlns="http://www.w3.org/2000/svg">
<path d="M109.019 77.6311C109.936 72.185 115.095 68.5138 120.541 69.4313L179.707 79.3989C185.153 80.3164 188.825 85.4752 187.907 90.9213L152.55 300.797C151.632 306.243 146.473 309.914 141.027 308.997L81.8611 299.029C76.415 298.112 72.7438 292.953 73.6613 287.507L109.019 77.6311Z" fill="url(#paint0_linear_3002_1067)"/>
<path d="M205 10C205 4.47716 209.477 0 215 0H275C280.523 0 285 4.47715 285 10V300C285 305.523 280.523 310 275 310H215C209.477 310 205 305.523 205 300V10Z" fill="url(#paint1_linear_3002_1067)"/>
<path d="M0 336C0 330.477 4.47715 326 10 326H347C352.523 326 357 330.477 357 336V346C357 351.523 352.523 356 347 356H10C4.47715 356 0 351.523 0 346V336Z" fill="#79849A"/>
<path d="M491 248L461.8 195H453.6V248H419.4V107.6H476.8C487.867 107.6 497.267 109.533 505 113.4C512.867 117.267 518.733 122.6 522.6 129.4C526.467 136.067 528.4 143.533 528.4 151.8C528.4 161.133 525.733 169.467 520.4 176.8C515.2 184.133 507.467 189.333 497.2 192.4L529.6 248H491ZM453.6 170.8H474.8C481.067 170.8 485.733 169.267 488.8 166.2C492 163.133 493.6 158.8 493.6 153.2C493.6 147.867 492 143.667 488.8 140.6C485.733 137.533 481.067 136 474.8 136H453.6V170.8Z" fill="#F5F5FC"/>
<path d="M655.069 190.4C655.069 193.6 654.869 196.933 654.469 200.4H577.069C577.602 207.333 579.802 212.667 583.669 216.4C587.669 220 592.535 221.8 598.269 221.8C606.802 221.8 612.735 218.2 616.069 211H652.469C650.602 218.333 647.202 224.933 642.269 230.8C637.469 236.667 631.402 241.267 624.069 244.6C616.735 247.933 608.535 249.6 599.469 249.6C588.535 249.6 578.802 247.267 570.269 242.6C561.735 237.933 555.069 231.267 550.269 222.6C545.469 213.933 543.069 203.8 543.069 192.2C543.069 180.6 545.402 170.467 550.069 161.8C554.869 153.133 561.535 146.467 570.069 141.8C578.602 137.133 588.402 134.8 599.469 134.8C610.269 134.8 619.869 137.067 628.269 141.6C636.669 146.133 643.202 152.6 647.869 161C652.669 169.4 655.069 179.2 655.069 190.4ZM620.069 181.4C620.069 175.533 618.069 170.867 614.069 167.4C610.069 163.933 605.069 162.2 599.069 162.2C593.335 162.2 588.469 163.867 584.469 167.2C580.602 170.533 578.202 175.267 577.269 181.4H620.069Z" fill="#F5F5FC"/>
<path d="M707.311 152.2C710.511 147 715.111 142.8 721.111 139.6C727.111 136.4 733.978 134.8 741.711 134.8C750.911 134.8 759.244 137.133 766.711 141.8C774.178 146.467 780.044 153.133 784.311 161.8C788.711 170.467 790.911 180.533 790.911 192C790.911 203.467 788.711 213.6 784.311 222.4C780.044 231.067 774.178 237.8 766.711 242.6C759.244 247.267 750.911 249.6 741.711 249.6C733.844 249.6 726.978 248.067 721.111 245C715.244 241.8 710.644 237.6 707.311 232.4V248H673.111V100H707.311V152.2ZM756.111 192C756.111 183.467 753.711 176.8 748.911 172C744.244 167.067 738.444 164.6 731.511 164.6C724.711 164.6 718.911 167.067 714.111 172C709.444 176.933 707.111 183.667 707.111 192.2C707.111 200.733 709.444 207.467 714.111 212.4C718.911 217.333 724.711 219.8 731.511 219.8C738.311 219.8 744.111 217.333 748.911 212.4C753.711 207.333 756.111 200.533 756.111 192Z" fill="#F5F5FC"/>
<path d="M859.653 249.6C848.72 249.6 838.853 247.267 830.053 242.6C821.386 237.933 814.52 231.267 809.453 222.6C804.52 213.933 802.053 203.8 802.053 192.2C802.053 180.733 804.586 170.667 809.653 162C814.72 153.2 821.653 146.467 830.453 141.8C839.253 137.133 849.12 134.8 860.053 134.8C870.986 134.8 880.853 137.133 889.653 141.8C898.453 146.467 905.386 153.2 910.453 162C915.52 170.667 918.053 180.733 918.053 192.2C918.053 203.667 915.453 213.8 910.253 222.6C905.186 231.267 898.186 237.933 889.253 242.6C880.453 247.267 870.586 249.6 859.653 249.6ZM859.653 220C866.186 220 871.72 217.6 876.253 212.8C880.92 208 883.253 201.133 883.253 192.2C883.253 183.267 880.986 176.4 876.453 171.6C872.053 166.8 866.586 164.4 860.053 164.4C853.386 164.4 847.853 166.8 843.453 171.6C839.053 176.267 836.853 183.133 836.853 192.2C836.853 201.133 838.986 208 843.253 212.8C847.653 217.6 853.12 220 859.653 220Z" fill="#F5F5FC"/>
<path d="M986.997 249.6C976.064 249.6 966.197 247.267 957.397 242.6C948.73 237.933 941.864 231.267 936.797 222.6C931.864 213.933 929.397 203.8 929.397 192.2C929.397 180.733 931.93 170.667 936.997 162C942.064 153.2 948.997 146.467 957.797 141.8C966.597 137.133 976.464 134.8 987.397 134.8C998.33 134.8 1008.2 137.133 1017 141.8C1025.8 146.467 1032.73 153.2 1037.8 162C1042.86 170.667 1045.4 180.733 1045.4 192.2C1045.4 203.667 1042.8 213.8 1037.6 222.6C1032.53 231.267 1025.53 237.933 1016.6 242.6C1007.8 247.267 997.93 249.6 986.997 249.6ZM986.997 220C993.53 220 999.064 217.6 1003.6 212.8C1008.26 208 1010.6 201.133 1010.6 192.2C1010.6 183.267 1008.33 176.4 1003.8 171.6C999.397 166.8 993.93 164.4 987.397 164.4C980.73 164.4 975.197 166.8 970.797 171.6C966.397 176.267 964.197 183.133 964.197 192.2C964.197 201.133 966.33 208 970.597 212.8C974.997 217.6 980.464 220 986.997 220Z" fill="#F5F5FC"/>
<defs>
<linearGradient id="paint0_linear_3002_1067" x1="522.698" y1="0" x2="522.698" y2="356" gradientUnits="userSpaceOnUse">
<stop stop-color="#FFD700"/>
<stop offset="1" stop-color="#FFAA00"/>
</linearGradient>
<linearGradient id="paint1_linear_3002_1067" x1="522.698" y1="0" x2="522.698" y2="356" gradientUnits="userSpaceOnUse">
<stop stop-color="#FFD700"/>
<stop offset="1" stop-color="#FFAA00"/>
</linearGradient>
</defs>
</svg>
