<svg width="1046" height="356" viewBox="0 0 1046 356" fill="none" xmlns="http://www.w3.org/2000/svg">
<path d="M109.019 77.6311C109.936 72.185 115.095 68.5138 120.541 69.4313L179.707 79.3989C185.153 80.3164 188.825 85.4752 187.907 90.9213L152.55 300.797C151.632 306.243 146.473 309.914 141.027 308.997L81.8611 299.029C76.415 298.112 72.7438 292.953 73.6613 287.507L109.019 77.6311Z" fill="url(#paint0_linear_876_463)"/>
<path d="M205 10C205 4.47716 209.477 0 215 0H275C280.523 0 285 4.47715 285 10V300C285 305.523 280.523 310 275 310H215C209.477 310 205 305.523 205 300V10Z" fill="url(#paint1_linear_876_463)"/>
<path d="M0 336C0 330.477 4.47715 326 10 326H347C352.523 326 357 330.477 357 336V346C357 351.523 352.523 356 347 356H10C4.47715 356 0 351.523 0 346V336Z" fill="#79849A"/>
<path d="M491 259L461.8 206H453.6V259H419.4V118.6H476.8C487.867 118.6 497.267 120.533 505 124.4C512.867 128.267 518.733 133.6 522.6 140.4C526.467 147.067 528.4 154.533 528.4 162.8C528.4 172.133 525.733 180.467 520.4 187.8C515.2 195.133 507.467 200.333 497.2 203.4L529.6 259H491ZM453.6 181.8H474.8C481.067 181.8 485.733 180.267 488.8 177.2C492 174.133 493.6 169.8 493.6 164.2C493.6 158.867 492 154.667 488.8 151.6C485.733 148.533 481.067 147 474.8 147H453.6V181.8Z" fill="#F5F5FC"/>
<path d="M655.069 201.4C655.069 204.6 654.869 207.933 654.469 211.4H577.069C577.602 218.333 579.802 223.667 583.669 227.4C587.669 231 592.535 232.8 598.269 232.8C606.802 232.8 612.735 229.2 616.069 222H652.469C650.602 229.333 647.202 235.933 642.269 241.8C637.469 247.667 631.402 252.267 624.069 255.6C616.735 258.933 608.535 260.6 599.469 260.6C588.535 260.6 578.802 258.267 570.269 253.6C561.735 248.933 555.069 242.267 550.269 233.6C545.469 224.933 543.069 214.8 543.069 203.2C543.069 191.6 545.402 181.467 550.069 172.8C554.869 164.133 561.535 157.467 570.069 152.8C578.602 148.133 588.402 145.8 599.469 145.8C610.269 145.8 619.869 148.067 628.269 152.6C636.669 157.133 643.202 163.6 647.869 172C652.669 180.4 655.069 190.2 655.069 201.4ZM620.069 192.4C620.069 186.533 618.069 181.867 614.069 178.4C610.069 174.933 605.069 173.2 599.069 173.2C593.335 173.2 588.469 174.867 584.469 178.2C580.602 181.533 578.202 186.267 577.269 192.4H620.069Z" fill="#F5F5FC"/>
<path d="M707.311 163.2C710.511 158 715.111 153.8 721.111 150.6C727.111 147.4 733.978 145.8 741.711 145.8C750.911 145.8 759.244 148.133 766.711 152.8C774.178 157.467 780.044 164.133 784.311 172.8C788.711 181.467 790.911 191.533 790.911 203C790.911 214.467 788.711 224.6 784.311 233.4C780.044 242.067 774.178 248.8 766.711 253.6C759.244 258.267 750.911 260.6 741.711 260.6C733.844 260.6 726.978 259.067 721.111 256C715.244 252.8 710.644 248.6 707.311 243.4V259H673.111V111H707.311V163.2ZM756.111 203C756.111 194.467 753.711 187.8 748.911 183C744.244 178.067 738.444 175.6 731.511 175.6C724.711 175.6 718.911 178.067 714.111 183C709.444 187.933 707.111 194.667 707.111 203.2C707.111 211.733 709.444 218.467 714.111 223.4C718.911 228.333 724.711 230.8 731.511 230.8C738.311 230.8 744.111 228.333 748.911 223.4C753.711 218.333 756.111 211.533 756.111 203Z" fill="#F5F5FC"/>
<path d="M859.653 260.6C848.72 260.6 838.853 258.267 830.053 253.6C821.386 248.933 814.52 242.267 809.453 233.6C804.52 224.933 802.053 214.8 802.053 203.2C802.053 191.733 804.586 181.667 809.653 173C814.72 164.2 821.653 157.467 830.453 152.8C839.253 148.133 849.12 145.8 860.053 145.8C870.986 145.8 880.853 148.133 889.653 152.8C898.453 157.467 905.386 164.2 910.453 173C915.52 181.667 918.053 191.733 918.053 203.2C918.053 214.667 915.453 224.8 910.253 233.6C905.186 242.267 898.186 248.933 889.253 253.6C880.453 258.267 870.586 260.6 859.653 260.6ZM859.653 231C866.186 231 871.72 228.6 876.253 223.8C880.92 219 883.253 212.133 883.253 203.2C883.253 194.267 880.986 187.4 876.453 182.6C872.053 177.8 866.586 175.4 860.053 175.4C853.386 175.4 847.853 177.8 843.453 182.6C839.053 187.267 836.853 194.133 836.853 203.2C836.853 212.133 838.986 219 843.253 223.8C847.653 228.6 853.12 231 859.653 231Z" fill="#F5F5FC"/>
<path d="M986.997 260.6C976.064 260.6 966.197 258.267 957.397 253.6C948.73 248.933 941.864 242.267 936.797 233.6C931.864 224.933 929.397 214.8 929.397 203.2C929.397 191.733 931.93 181.667 936.997 173C942.064 164.2 948.997 157.467 957.797 152.8C966.597 148.133 976.464 145.8 987.397 145.8C998.33 145.8 1008.2 148.133 1017 152.8C1025.8 157.467 1032.73 164.2 1037.8 173C1042.86 181.667 1045.4 191.733 1045.4 203.2C1045.4 214.667 1042.8 224.8 1037.6 233.6C1032.53 242.267 1025.53 248.933 1016.6 253.6C1007.8 258.267 997.93 260.6 986.997 260.6ZM986.997 231C993.53 231 999.064 228.6 1003.6 223.8C1008.26 219 1010.6 212.133 1010.6 203.2C1010.6 194.267 1008.33 187.4 1003.8 182.6C999.397 177.8 993.93 175.4 987.397 175.4C980.73 175.4 975.197 177.8 970.797 182.6C966.397 187.267 964.197 194.133 964.197 203.2C964.197 212.133 966.33 219 970.597 223.8C974.997 228.6 980.464 231 986.997 231Z" fill="#F5F5FC"/>
<defs>
<linearGradient id="paint0_linear_876_463" x1="522.698" y1="0" x2="522.698" y2="356" gradientUnits="userSpaceOnUse">
<stop stop-color="#FEE249"/>
<stop offset="1" stop-color="#CB9A06"/>
</linearGradient>
<linearGradient id="paint1_linear_876_463" x1="522.698" y1="0" x2="522.698" y2="356" gradientUnits="userSpaceOnUse">
<stop stop-color="#FEE249"/>
<stop offset="1" stop-color="#CB9A06"/>
</linearGradient>
</defs>
</svg>
